<svg width="16" height="16" viewBox="0 0 16 16" fill="none" xmlns="http://www.w3.org/2000/svg">
  <path d="M11.9993 2C12.1599 2 12.3092 2.07697 12.4025 2.20433L12.439 2.26192L14.6147 6.28079L14.6399 6.34272L14.648 6.36927L14.6614 6.43739L14.6653 6.5C14.6653 6.54603 14.6591 6.59059 14.6474 6.63292L14.6158 6.71693L14.5908 6.76267C14.5761 6.78643 14.5593 6.80907 14.5405 6.83047L14.5803 6.77887L14.564 6.80167L8.39747 13.8054C8.34407 13.8763 8.27523 13.9278 8.19927 13.96L8.13383 13.982L8.08233 13.9936L7.99953 14.0002L7.93267 13.9958L7.85407 13.9788C7.81393 13.9673 7.77487 13.9503 7.73833 13.9281L7.73223 13.9231C7.70083 13.9043 7.67147 13.8812 7.64483 13.8543L1.45206 6.82347L1.43457 6.80167L1.40786 6.76267C1.37087 6.70293 1.34614 6.63487 1.33713 6.56191L1.33334 6.5L1.3352 6.45609L1.34404 6.39693C1.3482 6.37698 1.35343 6.35781 1.35977 6.33913L1.37499 6.30014L1.39366 6.26192L3.56629 2.26192C3.63609 2.12071 3.77486 2.02609 3.93131 2.0046L3.99931 2H11.9993ZM9.99797 7H5.99867L7.99927 12.1247L9.99797 7ZM4.92601 7H2.93934L6.50667 11.0493L4.92601 7ZM13.058 7H11.072 L9.49334 11.0467L13.058 7ZM5.98067 3H4.29664L2.67134 6H5.02067L5.98067 3ZM8.96727 3H7.03061L6.07001 6H9.92601L8.96727 3ZM11.7013 3H10.0173L10.9773 6H13.3253L11.7013 3Z" fill="#212121" />
</svg>
